<svg width="4051" height="2406" xmlns="http://www.w3.org/2000/svg" xmlns:xlink="http://www.w3.org/1999/xlink" xml:space="preserve" overflow="hidden"><g transform="translate(-266 -38)"><path d="M2550.81 128.008C3177.1 270.946 3568.93 894.526 3425.99 1520.81 3283.05 2147.1 2659.47 2538.93 2033.19 2395.99 1406.9 2253.05 1015.07 1629.47 1158.01 1003.19 1232.59 676.399 1444.52 397.673 1739.48 238.453L1710.54 170.84 1861.24 255.753 1822.64 432.71 1793.71 365.132C1298.39 640.328 1119.94 1264.96 1395.13 1760.29 1670.33 2255.61 2294.96 2434.06 2790.29 2158.87 3285.61 1883.67 3464.06 1259.04 3188.87 763.713 3047.38 509.055 2804.31 326.55 2520.29 261.728Z" fill="#CCD2D8" fill-rule="evenodd"/><path d="M1896.5 107.335C1896.5 70.9753 1925.98 41.5001 1962.33 41.5001L2621.67 41.5001C2658.02 41.5001 2687.5 70.9753 2687.5 107.335L2687.5 370.665C2687.5 407.025 2658.02 436.5 2621.67 436.5L1962.33 436.5C1925.98 436.5 1896.5 407.025 1896.5 370.665Z" stroke="#FFFFFF" stroke-width="6.875" stroke-miterlimit="8" fill="#0B3041" fill-rule="evenodd"/><text fill="#FFFFFF" font-family="Aptos,Aptos_MSFontService,sans-serif" font-weight="700" font-size="73" transform="matrix(1 0 0 1 1977.25 218)">Specifying Student </text><text fill="#FFFFFF" font-family="Aptos,Aptos_MSFontService,sans-serif" font-weight="700" font-size="73" transform="matrix(1 0 0 1 1965.74 299)">Learning Outcomes</text><path d="M2721.5 504.335C2721.5 467.975 2750.98 438.5 2787.33 438.5L3446.67 438.5C3483.02 438.5 3512.5 467.975 3512.5 504.335L3512.5 767.665C3512.5 804.025 3483.02 833.5 3446.67 833.5L2787.33 833.5C2750.98 833.5 2721.5 804.025 2721.5 767.665Z" stroke="#FFFFFF" stroke-width="6.875" stroke-miterlimit="8" fill="#990033" fill-rule="evenodd"/><text fill="#FFFFFF" font-family="Aptos,Aptos_MSFontService,sans-serif" font-weight="700" font-size="73" transform="matrix(1 0 0 1 2903.79 534)">Creating and </text><text fill="#FFFFFF" font-family="Aptos,Aptos_MSFontService,sans-serif" font-weight="700" font-size="73" transform="matrix(1 0 0 1 2973.3 615)">Mapping </text><text fill="#FFFFFF" font-family="Aptos,Aptos_MSFontService,sans-serif" font-weight="700" font-size="73" transform="matrix(1 0 0 1 2852.73 696)">Programming to </text><text fill="#FFFFFF" font-family="Aptos,Aptos_MSFontService,sans-serif" font-weight="700" font-size="73" transform="matrix(1 0 0 1 2942.22 776)">Outcomes</text><path d="M2925.5 1397.33C2925.5 1360.98 2954.98 1331.5 2991.34 1331.5L3649.67 1331.5C3686.02 1331.5 3715.5 1360.98 3715.5 1397.33L3715.5 1660.67C3715.5 1697.02 3686.02 1726.5 3649.67 1726.5L2991.34 1726.5C2954.98 1726.5 2925.5 1697.02 2925.5 1660.67Z" stroke="#FFFFFF" stroke-width="6.875" stroke-miterlimit="8" fill="#009900" fill-rule="evenodd"/><text fill="#FFFFFF" font-family="Aptos,Aptos_MSFontService,sans-serif" font-weight="700" font-size="73" transform="matrix(1 0 0 1 2984.6 1508)">Selecting/Designing </text><text fill="#FFFFFF" font-family="Aptos,Aptos_MSFontService,sans-serif" font-weight="700" font-size="73" transform="matrix(1 0 0 1 3115.55 1589)">Instruments</text><path d="M2475.5 2098.34C2475.5 2061.98 2504.98 2032.5 2541.33 2032.5L3199.67 2032.5C3236.02 2032.5 3265.5 2061.98 3265.5 2098.34L3265.5 2361.67C3265.5 2398.03 3236.02 2427.5 3199.67 2427.5L2541.33 2427.5C2504.98 2427.5 2475.5 2398.03 2475.5 2361.67Z" stroke="#FFFFFF" stroke-width="6.875" stroke-miterlimit="8" fill="#7030A0" fill-rule="evenodd"/><text fill="#FFFFFF" font-family="Aptos,Aptos_MSFontService,sans-serif" font-weight="700" font-size="73" transform="matrix(1 0 0 1 2697.16 2168)">Examining </text><text fill="#FFFFFF" font-family="Aptos,Aptos_MSFontService,sans-serif" font-weight="700" font-size="73" transform="matrix(1 0 0 1 2601.26 2249)">Implementation </text><text fill="#FFFFFF" font-family="Aptos,Aptos_MSFontService,sans-serif" font-weight="700" font-size="73" transform="matrix(1 0 0 1 2746.71 2330)">Fidelity</text><path d="M1410.5 2098.34C1410.5 2061.98 1439.98 2032.5 1476.33 2032.5L2134.66 2032.5C2171.02 2032.5 2200.5 2061.98 2200.5 2098.34L2200.5 2361.67C2200.5 2398.02 2171.02 2427.5 2134.66 2427.5L1476.33 2427.5C1439.98 2427.5 1410.5 2398.02 1410.5 2361.67Z" stroke="#FFFFFF" stroke-width="6.875" stroke-miterlimit="8" fill="#7030A0" fill-rule="evenodd"/><text fill="#FFFFFF" font-family="Aptos,Aptos_MSFontService,sans-serif" font-weight="700" font-size="73" transform="matrix(1 0 0 1 1451.14 2208)">Collecting Outcomes </text><text fill="#FFFFFF" font-family="Aptos,Aptos_MSFontService,sans-serif" font-weight="700" font-size="73" transform="matrix(1 0 0 1 1608.53 2289)">Information</text><path d="M868.5 1397.33C868.5 1360.98 897.976 1331.5 934.335 1331.5L1592.67 1331.5C1629.02 1331.5 1658.5 1360.98 1658.5 1397.33L1658.5 1660.67C1658.5 1697.02 1629.02 1726.5 1592.67 1726.5L934.335 1726.5C897.976 1726.5 868.5 1697.02 868.5 1660.67Z" stroke="#FFFFFF" stroke-width="6.875" stroke-miterlimit="8" fill="#156082" fill-rule="evenodd"/><text fill="#FFFFFF" font-family="Aptos,Aptos_MSFontService,sans-serif" font-weight="700" font-size="73" transform="matrix(1 0 0 1 1005.63 1427)">Analyzing Data, </text><text fill="#FFFFFF" font-family="Aptos,Aptos_MSFontService,sans-serif" font-weight="700" font-size="73" transform="matrix(1 0 0 1 955.988 1508)">Reporting Results, </text><text fill="#FFFFFF" font-family="Aptos,Aptos_MSFontService,sans-serif" font-weight="700" font-size="73" transform="matrix(1 0 0 1 997.261 1589)">and Maintaining </text><text fill="#FFFFFF" font-family="Aptos,Aptos_MSFontService,sans-serif" font-weight="700" font-size="73" transform="matrix(1 0 0 1 1066.86 1669)">Information</text><path d="M1072.5 504.335C1072.5 467.975 1101.98 438.5 1138.34 438.5L1796.66 438.5C1833.02 438.5 1862.5 467.975 1862.5 504.335L1862.5 767.665C1862.5 804.025 1833.02 833.5 1796.66 833.5L1138.34 833.5C1101.98 833.5 1072.5 804.025 1072.5 767.665Z" stroke="#FFFFFF" stroke-width="6.875" stroke-miterlimit="8" fill="#C04F15" fill-rule="evenodd"/><text fill="#FFFFFF" font-family="Aptos,Aptos_MSFontService,sans-serif" font-weight="700" font-size="73" transform="matrix(1 0 0 1 1184.7 575)">Using Results for </text><text fill="#FFFFFF" font-family="Aptos,Aptos_MSFontService,sans-serif" font-weight="700" font-size="73" transform="matrix(1 0 0 1 1185.14 656)">Program</text><text fill="#FFFFFF" font-family="Aptos,Aptos_MSFontService,sans-serif" font-weight="700" font-size="73" transform="matrix(1 0 0 1 1465.15 656)">-</text><text fill="#FFFFFF" font-family="Aptos,Aptos_MSFontService,sans-serif" font-weight="700" font-size="73" transform="matrix(1 0 0 1 1490.11 656)">Related </text><text fill="#FFFFFF" font-family="Aptos,Aptos_MSFontService,sans-serif" font-weight="700" font-size="73" transform="matrix(1 0 0 1 1300.68 737)">Decisions</text></g></svg>