<svg width="2147" height="979" xmlns="http://www.w3.org/2000/svg" xmlns:xlink="http://www.w3.org/1999/xlink" xml:space="preserve" overflow="hidden"><g transform="translate(-1127 -784)"><path d="M1130.5 937.67C1130.5 854.733 1197.73 787.5 1280.67 787.5L3120.33 787.5C3203.27 787.5 3270.5 854.733 3270.5 937.67L3270.5 1538.33C3270.5 1621.27 3203.27 1688.5 3120.33 1688.5L1280.67 1688.5C1197.73 1688.5 1130.5 1621.27 1130.5 1538.33Z" stroke="#042433" stroke-width="6.875" stroke-miterlimit="8" fill="#156082" fill-rule="evenodd"/><text fill="#FFFFFF" font-family="Aptos,Aptos_MSFontService,sans-serif" font-weight="400" font-size="165" transform="matrix(1 0 0 1 1651.4 1024)">Analyzing Data, </text><text fill="#FFFFFF" font-family="Aptos,Aptos_MSFontService,sans-serif" font-weight="400" font-size="165" transform="matrix(1 0 0 1 1395.35 1222)">Reporting Results, and </text><text fill="#FFFFFF" font-family="Aptos,Aptos_MSFontService,sans-serif" font-weight="400" font-size="165" transform="matrix(1 0 0 1 1784.66 1420)">Maintaining </text><text fill="#FFFFFF" font-family="Aptos,Aptos_MSFontService,sans-serif" font-weight="400" font-size="165" transform="matrix(1 0 0 1 1784.96 1618)">Information</text></g></svg>