<svg width="96" height="96" xmlns="http://www.w3.org/2000/svg" xmlns:xlink="http://www.w3.org/1999/xlink" xml:space="preserve" overflow="hidden"><g transform="translate(-803 -372)"><path d="M817 448 885 448 885 454 817 454Z"/><path d="M817 386 825 386 825 444 817 444Z"/><path d="M867 436 885 436 885 444 867 444Z"/><path d="M867 402 885 402 885 432 867 432Z"/><path d="M867 390 885 390 885 398 867 398Z"/><path d="M855 408C853.9 408 853 407.1 853 406 853 404.9 853.9 404 855 404 856.1 404 857 404.9 857 406 857 407.1 856.1 408 855 408ZM855 440C853.9 440 853 439.1 853 438 853 436.9 853.9 436 855 436 856.1 436 857 436.9 857 438 857 439.1 856.1 440 855 440ZM863 400 847 400 847 444 863 444 863 400Z"/><path d="M839 402 833 402 833 396 839 396 839 402ZM843 392 829 392 829 444 843 444 843 392Z"/></g></svg>