<svg width="96" height="96" xmlns="http://www.w3.org/2000/svg" xmlns:xlink="http://www.w3.org/1999/xlink" xml:space="preserve" overflow="hidden"><g transform="translate(-959 -372)"><path d="M991.532 405.506 993.532 405.506 993.532 404.287C1002.76 407.087 1007.11 413.741 1006.78 424.494L1004.53 424.494 1004.53 432 1012.04 432 1012.04 424.494 1009.77 424.494C1010.06 414.694 1006.75 407.76 999.902 403.776L1014.58 406.476C1014.81 407.928 1016.06 408.998 1017.53 409 1017.55 409 1017.57 408.994 1017.59 408.994L1017.53 422.5C1017.53 422.776 1017.76 423 1018.03 423 1018.19 423 1018.34 422.926 1018.43 422.8L1023.04 417.008 1030.46 416.867C1030.73 416.867 1030.96 416.643 1030.96 416.367 1030.96 416.21 1030.88 416.061 1030.76 415.967L1019.93 407.785C1020.93 406.467 1020.66 404.592 1019.35 403.597 1018.03 402.603 1016.15 402.865 1015.16 404.183 1015.08 404.286 1015.01 404.395 1014.94 404.508L993.532 400.572 993.532 398 986.026 398 986.026 405.506 991.532 405.506ZM1010.04 430 1006.53 430 1006.53 426.494 1010.04 426.494ZM988.026 400 991.532 400 991.532 403.506 988.026 403.506Z"/><path d="M1043 387 971 387C968.794 387.007 967.007 388.794 967 391L967 439C967.007 441.206 968.794 442.993 971 443L999 443 999 449 989 449 989 455 1025 455 1025 449 1015 449 1015 443 1043 443C1045.21 442.993 1046.99 441.206 1047 439L1047 391C1046.99 388.794 1045.21 387.007 1043 387ZM1041 437 973 437 973 393 1041 393Z"/></g></svg>