<svg width="96" height="96" xmlns="http://www.w3.org/2000/svg" xmlns:xlink="http://www.w3.org/1999/xlink" xml:space="preserve" overflow="hidden"><g transform="translate(-182 -372)"><path d="M238.11 395.47C245.861 397.906 252.029 403.825 254.78 411.47L251.7 409.64C250.791 409.013 249.545 409.242 248.918 410.152 248.291 411.061 248.52 412.306 249.43 412.933 249.516 412.993 249.606 413.045 249.7 413.09L256.7 417.24C257.055 417.525 257.495 417.68 257.95 417.68L258 417.68 258.16 417.68 258.24 417.68 258.24 417.68 258.4 417.68C258.912 417.547 259.351 417.216 259.62 416.76L264 409.39C264.478 408.394 264.058 407.199 263.062 406.722 262.174 406.296 261.109 406.579 260.55 407.39L258.7 410.54 258.7 410.54C256.388 403.785 251.739 398.079 245.59 394.45 243.606 393.282 241.496 392.343 239.3 391.65 238.245 391.321 237.124 391.91 236.795 392.965 236.466 394.02 237.055 395.141 238.11 395.47Z"/><path d="M201.14 427.16C201.354 428.064 202.161 428.702 203.09 428.7 203.245 428.699 203.4 428.679 203.55 428.64 204.607 428.37 205.252 427.302 205 426.24 203.475 419.699 204.551 412.823 208 407.06 208.799 405.708 209.716 404.43 210.74 403.24L210.8 403.3 210.8 406.96C210.8 408.065 211.695 408.96 212.8 408.96 213.905 408.96 214.8 408.065 214.8 406.96L214.88 398.48C214.88 397.375 213.985 396.48 212.88 396.48L204.39 396.4C203.285 396.4 202.39 397.295 202.39 398.4 202.39 399.505 203.285 400.4 204.39 400.4L207.94 400.4C206.65 401.821 205.498 403.361 204.5 405 200.543 411.669 199.338 419.617 201.14 427.16Z"/><path d="M248.22 439.15C242.141 444.885 233.681 447.358 225.47 445.8L225.47 445.8 228.65 444C229.608 443.448 229.937 442.223 229.385 441.265 228.833 440.307 227.608 439.978 226.65 440.53L219.3 444.7C218.339 445.245 218.003 446.466 218.548 447.427 218.549 447.428 218.549 447.429 218.55 447.43L222.76 454.8C223.312 455.761 224.539 456.092 225.5 455.54 226.461 454.988 226.792 453.761 226.24 452.8L224.45 449.68C234.014 451.605 243.917 448.759 251 442.05 251.832 441.324 251.918 440.06 251.192 439.228 250.466 438.396 249.203 438.31 248.37 439.036 248.329 439.072 248.288 439.11 248.25 439.15Z"/><path d="M216 437.64C216 442.058 212.418 445.64 208 445.64 203.582 445.64 200 442.058 200 437.64 200 433.222 203.582 429.64 208 429.64 212.418 429.64 216 433.222 216 437.64Z"/><path d="M264.5 430.8C264.5 435.218 260.918 438.8 256.5 438.8 252.082 438.8 248.5 435.218 248.5 430.8 248.5 426.382 252.082 422.8 256.5 422.8 260.918 422.8 264.5 426.382 264.5 430.8Z"/><path d="M234.75 392.61C234.75 397.028 231.168 400.61 226.75 400.61 222.332 400.61 218.75 397.028 218.75 392.61 218.75 388.192 222.332 384.61 226.75 384.61 231.168 384.61 234.75 388.192 234.75 392.61Z"/></g></svg>