<svg width="96" height="96" xmlns="http://www.w3.org/2000/svg" xmlns:xlink="http://www.w3.org/1999/xlink" xml:space="preserve" overflow="hidden"><g transform="translate(-493 -372)"><path d="M524.2 423.5C520.4 425 516.9 427 513.7 429.5 511.5 431.3 510.1 434 510 436.9L508.3 451.7C508 453.9 509 456.1 510.8 457.3 512.6 458.5 514.5 459.4 516.5 460.2L517.4 460.2 517.4 456.3C515.9 455.7 514.4 454.9 513 454 512.4 453.6 512.1 452.9 512.2 452.2L514 437.2 514 437C514.1 435.2 514.9 433.6 516.3 432.5 519 430.2 522.9 428.1 528.3 426.1 531.3 427.9 535.9 429 541 429 546.1 429 550.7 427.9 553.7 426.1 559.2 428.1 563 430.2 565.7 432.5 567.1 433.6 567.9 435.3 568 437L569.8 452.1C569.9 452.8 569.6 453.5 569 453.9L569 453.9C567.6 454.8 566.2 455.6 564.6 456.2L564.6 460.1 565.5 460.1C567.5 459.4 569.4 458.4 571.2 457.2L571.2 457.2C573 455.9 574 453.8 573.7 451.6L572 436.9C571.9 434 570.5 431.3 568.3 429.5 565.1 427 561.6 424.9 557.8 423.5 557.8 418.4 558 404.4 558 398.7 558 397.1 557.8 395.5 557.4 393.9 556.1 389.1 552.8 385.1 548.4 382.8 548 382.6 547.4 382.6 547.1 382.9L546.2 383.6 545.2 382.2C544.9 381.7 544.4 381.4 543.9 381.3 542.9 381.1 542 381 541 381 537 381 533 382.5 530 385.1 526.2 388.5 524.1 393.3 524.2 398.4L524.2 423.5ZM529.2 407.2 529.9 399 552 399 552.7 407.2C551.5 413.7 545.3 418 538.7 416.8 533.9 415.9 530.1 412.1 529.2 407.2ZM533.2 423.9C534.3 423 535 421.5 535 420L535 419.8C538.8 421.4 543.2 421.4 547 419.8L547 420C547 421.5 547.7 422.9 548.8 423.9 546.3 424.7 543.6 425 541 425 538.4 425 535.7 424.7 533.2 423.9Z"/><path d="M562.6 437.3C562.6 435.9 561.5 434.8 560.1 434.8L560.1 434.8 522 434.8C520.6 434.8 519.5 435.9 519.5 437.3L519.5 437.3 519.5 462.2 511.9 462.2 511.9 463.5C511.9 464.9 513 466 514.4 466L567.7 466C569.1 466 570.2 464.9 570.2 463.5L570.2 462.2 562.6 462.2 562.6 437.3ZM535.8 453.8 534.4 455.2 528.8 449.6 534.4 444 535.8 445.4 531.6 449.6 535.8 453.8ZM539.6 455.9 537.8 455.1 542.5 443.8 544.3 444.6 539.6 455.9ZM547.6 455.3 546.2 453.9 550.4 449.7 546.2 445.5 547.6 444.1 553.2 449.7 547.6 455.3Z"/></g></svg>