<svg width="96" height="96" xmlns="http://www.w3.org/2000/svg" xmlns:xlink="http://www.w3.org/1999/xlink" xml:space="preserve" overflow="hidden"><g transform="translate(-337 -372)"><path d="M410 454 360 454 360 392 371 392 371 398 399 398 399 392 410 392 410 454ZM385 384C386.7 384 388 385.3 388 387 388 388.7 386.7 390 385 390 383.3 390 382 388.7 382 387 382 386.2 382.3 385.4 382.9 384.9 383.4 384.3 384.2 384 385 384ZM412 386 395 386 395 384C395 381.8 393.2 380 391 380L379 380C376.8 380 375 381.8 375 384L375 386 358 386C355.8 386 354 387.8 354 390L354 456C354 458.2 355.8 460 358 460L412 460C414.2 460 416 458.2 416 456L416 390C416 387.8 414.2 386 412 386Z"/></g></svg>