<svg width="96" height="96" xmlns="http://www.w3.org/2000/svg" xmlns:xlink="http://www.w3.org/1999/xlink" xml:space="preserve" overflow="hidden"><g transform="translate(-648 -372)"><path d="M675.75 410.59C682.561 408.354 690.021 409.356 696 413.31 701.979 409.356 709.439 408.354 716.25 410.59 716.409 409.598 716.493 408.595 716.5 407.59 716.5 396.268 707.322 387.09 696 387.09 684.678 387.09 675.5 396.268 675.5 407.59 675.507 408.595 675.591 409.598 675.75 410.59Z"/><path d="M718.38 414.74C716.399 420.875 711.994 425.934 706.19 428.74 706.435 430.113 706.559 431.505 706.56 432.9 706.561 439.658 703.645 446.088 698.56 450.54 701.699 452.412 705.285 453.4 708.94 453.4 720.256 453.404 729.433 444.234 729.438 432.918 729.441 425.263 725.176 418.244 718.38 414.72Z"/><path d="M702.67 427C701.489 423.078 699.167 419.597 696 417 692.833 419.597 690.511 423.078 689.33 427 693.649 428.507 698.351 428.507 702.67 427Z"/><path d="M683.06 453.42C686.715 453.42 690.301 452.432 693.44 450.56 688.355 446.108 685.439 439.678 685.44 432.92 685.441 431.525 685.565 430.133 685.81 428.76 680.006 425.953 675.601 420.895 673.62 414.76 663.574 419.969 659.653 432.336 664.862 442.382 668.386 449.178 675.405 453.443 683.06 453.44Z"/><path d="M696 448.8C700.784 444.916 703.561 439.082 703.56 432.92 703.551 431.916 703.471 430.913 703.32 429.92 698.565 431.48 693.435 431.48 688.68 429.92 688.529 430.913 688.449 431.916 688.44 432.92 688.439 439.082 691.216 444.916 696 448.8Z"/><path d="M715.61 413.55C709.966 411.594 703.748 412.224 698.61 415.27 701.81 418.08 704.188 421.705 705.49 425.76 710.358 423.204 714.002 418.808 715.61 413.55Z"/><path d="M683.06 412.42C680.789 412.425 678.536 412.807 676.39 413.55 678.01 418.817 681.673 423.215 686.56 425.76 687.862 421.705 690.24 418.08 693.44 415.27 690.299 413.405 686.713 412.421 683.06 412.42Z"/></g></svg>